# xmcd
#
# Track frame offsets:
#	150
#	8938
#	19379
#	28596
#	41974
#	54408
#	65320
#	76390
#	88663
#	98440
#	109289
#	123824
#	139145
#	150255
#	158631
#	174983
#	192663
#	202797
#	214109
#	225156
#	235110
#	246315
#	259342
#	267946
#	279018
#	289968
#	304034
#
# Disc length: 4221 seconds
#
# Revision: 1
# Processed by: cddbd v1.5.2PL0 Copyright (c) Steve Scherf et al.
# Submitted via: audiograbber 1.83.01
#
DISCID=67107b1b
DTITLE=Dolly Parton and Porter Wagoner - Just Between You And Me [CD 5)
DYEAR=2014
DGENRE=Country
TTITLE0=How Can I (Help You Forgive Me)
TTITLE1=Come To Me
TTITLE2=Laugh The Years Away
TTITLE3=There'll Always Be Music
TTITLE4=I Have No Right To Care
TTITLE5=Come To Me
TTITLE6=Beneath The Sweet Magnolia Tree
TTITLE7=Love Is Out Tonight
TTITLE8=If Teardrops Were Pennies
TTITLE9=You
TTITLE10=There'll Alway Be Music
TTITLE11=I Get Lonesome By Myself
TTITLE12=Sounds Of Night
TTITLE13=Wasting Love
TTITLE14=All Aboard America
TTITLE15=Here Comes The Freedom Train
TTITLE16=Too Far Gone
TTITLE17=Again
TTITLE18=Something To Reach For
TTITLE19=The Fire That Keeps You Warm
TTITLE20=Without You
TTITLE21=Sixteen Years
TTITLE22=Carolina Moonshine
TTITLE23=If You Say I Can
TTITLE24=The Power Of Love
TTITLE25=The Beginning
TTITLE26=Please Don't Stop Loving Me
EXTD=
EXTT0=
EXTT1=
EXTT2=
EXTT3=
EXTT4=
EXTT5=
EXTT6=
EXTT7=
EXTT8=
EXTT9=
EXTT10=
EXTT11=
EXTT12=
EXTT13=
EXTT14=
EXTT15=
EXTT16=
EXTT17=
EXTT18=
EXTT19=
EXTT20=
EXTT21=
EXTT22=
EXTT23=
EXTT24=
EXTT25=
EXTT26=
PLAYORDER=
